<?xml version="1.0" standalone="no"?>
<!DOCTYPE svg PUBLIC "-//W3C//DTD SVG 20010904//EN"
 "http://www.w3.org/TR/2001/REC-SVG-20010904/DTD/svg10.dtd">
<svg version="1.0" xmlns="http://www.w3.org/2000/svg"
 width="512.000000pt" height="512.000000pt" viewBox="0 0 512.000000 512.000000"
 preserveAspectRatio="xMidYMid meet">
<metadata>
Created by potrace 1.11, written by Peter Selinger 2001-2013
</metadata>
<g transform="translate(0.000000,512.000000) scale(0.100000,-0.100000)"
fill="#000000" stroke="none">
<path d="M4977 4834 c-1 -1 -22 -3 -47 -5 -25 -1 -62 -8 -82 -15 -21 -7 -38
-10 -38 -7 0 4 -5 2 -12 -5 -7 -7 -18 -12 -24 -12 -7 0 -25 -5 -41 -11 -15 -6
-29 -10 -30 -10 -15 1 -406 -190 -414 -202 -3 -5 -9 -8 -13 -8 -10 1 -41 -12
-46 -19 -3 -4 -23 -17 -45 -29 -80 -44 -100 -56 -103 -63 -2 -5 -10 -8 -18 -8
-8 0 -14 -5 -14 -12 0 -6 -3 -9 -6 -5 -3 3 -11 1 -18 -4 -6 -5 -47 -32 -91
-59 -44 -27 -125 -80 -179 -117 -54 -37 -104 -70 -110 -72 -6 -2 -13 -7 -16
-11 -3 -3 -36 -28 -74 -54 -38 -27 -74 -53 -80 -57 -14 -12 -165 -125 -195
-147 -13 -9 -28 -22 -35 -27 -6 -6 -31 -26 -56 -44 -25 -19 -49 -39 -55 -46
-5 -6 -26 -22 -45 -35 -19 -14 -45 -34 -57 -47 -13 -12 -39 -34 -60 -50 -20
-15 -46 -37 -58 -48 -11 -11 -47 -42 -79 -70 -209 -182 -459 -431 -590 -590
-28 -33 -56 -67 -63 -75 -16 -19 -59 -74 -99 -125 -61 -79 -204 -286 -204
-295 0 -6 -4 -10 -9 -10 -5 0 -14 -13 -21 -30 -7 -16 -16 -30 -21 -30 -5 0 -9
-7 -9 -15 0 -8 -4 -15 -10 -15 -5 0 -10 -6 -10 -12 -1 -28 -35 -55 -65 -51
-18 2 -42 -4 -62 -16 -30 -19 -113 -129 -113 -150 0 -6 -4 -11 -8 -11 -5 0
-17 -16 -28 -35 -10 -19 -22 -35 -26 -35 -5 0 -8 -6 -8 -13 0 -8 -9 -24 -20
-37 -19 -22 -23 -34 -23 -73 0 -9 -3 -17 -6 -17 -4 0 -7 -9 -7 -20 0 -11 4
-20 8 -20 4 0 7 -3 7 -7 -4 -24 4 -45 27 -73 15 -17 25 -32 23 -34 -2 -2 -35
-13 -74 -25 -86 -26 -228 -83 -236 -94 -3 -5 -9 -8 -13 -7 -12 2 -96 -43 -96
-52 0 -5 -4 -7 -8 -4 -5 3 -23 -8 -40 -24 -18 -16 -40 -35 -50 -42 -45 -34
-202 -247 -202 -275 0 -7 -4 -13 -8 -13 -5 0 -14 -16 -22 -35 -8 -19 -17 -35
-22 -35 -4 0 -7 -3 -6 -8 1 -4 -10 -32 -24 -62 -14 -30 -29 -65 -33 -77 -3
-13 -11 -23 -16 -23 -5 0 -8 -3 -7 -7 3 -11 -22 -85 -33 -99 -5 -6 -6 -14 -2
-18 4 -4 3 -10 -3 -14 -6 -4 -24 -50 -39 -102 -54 -187 -147 -324 -285 -420
-19 -14 -37 -27 -40 -30 -3 -3 -27 -19 -55 -35 -27 -15 -53 -32 -56 -37 -3 -5
-15 -10 -27 -11 -29 -2 -38 -27 -9 -27 70 -1 117 -6 117 -11 0 -3 88 -5 195
-5 107 0 195 2 195 5 0 4 19 7 42 8 44 1 104 8 148 18 13 2 42 7 64 11 22 3
48 10 58 15 10 6 23 7 28 4 5 -3 11 -1 14 4 3 4 25 11 48 15 23 4 48 12 55 18
7 6 13 7 13 3 0 -4 6 -3 13 3 6 6 16 10 20 10 15 0 89 30 201 82 75 35 227
126 237 142 3 5 8 8 10 7 4 -3 7 -1 104 79 93 76 205 192 205 212 0 5 5 10 10
10 6 0 10 7 10 15 0 8 5 15 10 15 6 0 10 7 10 15 0 8 4 15 9 15 5 0 12 11 15
25 4 14 10 25 15 25 5 0 12 13 16 30 4 16 11 30 16 30 5 0 8 3 7 8 -1 4 5 23
14 42 16 38 28 82 25 91 -1 3 3 12 9 20 6 8 14 26 18 42 l7 28 44 -27 c50 -29
98 -33 148 -13 30 12 106 57 117 69 3 3 30 21 60 40 30 19 57 37 60 40 3 3 16
11 30 18 43 22 65 62 64 114 0 40 3 48 25 60 14 7 30 19 34 25 4 7 12 13 18
13 8 0 118 69 154 98 6 4 63 45 128 91 65 45 123 88 130 94 6 7 30 25 52 41
41 31 68 53 111 94 13 13 24 21 24 19 0 -3 30 23 67 57 78 72 304 296 298 296
-2 0 22 26 53 59 62 64 81 85 191 211 104 120 111 129 156 185 21 28 44 55 49
60 6 6 24 28 41 50 16 22 35 47 42 55 40 51 86 107 99 123 8 9 14 21 14 26 0
5 4 11 8 13 4 2 23 26 42 53 19 28 44 58 54 68 10 9 15 17 11 17 -5 0 3 13 18
28 15 16 25 31 21 34 -3 4 4 11 15 18 12 6 19 15 16 21 -4 5 -1 9 4 9 6 0 11
6 11 14 0 8 3 16 8 18 4 2 20 23 37 48 16 25 32 47 35 50 4 3 17 23 30 45 13
22 26 42 29 45 9 8 30 43 40 66 5 11 15 27 23 35 7 8 20 27 28 42 45 81 124
208 131 213 5 3 7 10 4 15 -4 5 -1 9 6 9 7 0 9 3 6 6 -4 4 2 19 12 33 10 14
22 36 25 49 4 12 12 22 17 22 5 0 9 9 9 20 0 11 5 20 12 20 6 0 8 3 5 6 -4 4
2 19 13 34 11 16 20 33 20 39 0 6 11 30 25 54 13 25 21 47 18 51 -4 3 -1 6 5
6 7 0 12 6 12 13 0 6 6 24 14 39 29 55 78 216 88 291 18 125 -12 184 -97 191
-20 1 -36 1 -38 0z"/>
</g>
</svg>
